<?xml version="1.0" encoding="UTF-8" standalone="no"?>
<svg
   xmlns:dc="http://purl.org/dc/elements/1.1/"
   xmlns:cc="http://creativecommons.org/ns#"
   xmlns:rdf="http://www.w3.org/1999/02/22-rdf-syntax-ns#"
   xmlns:svg="http://www.w3.org/2000/svg"
   xmlns="http://www.w3.org/2000/svg"
   version="1.0"
   width="256"
   height="256"
   id="svg2">
  <metadata
     id="metadata26">
    <rdf:RDF>
      <cc:Work
         rdf:about="">
        <dc:format>image/svg+xml</dc:format>
        <dc:type
           rdf:resource="http://purl.org/dc/dcmitype/StillImage" />
        <dc:title></dc:title>
      </cc:Work>
    </rdf:RDF>
  </metadata>
  <defs
     id="defs4" />
  <rect
     y="32.814915"
     x="0.37591279"
     height="190.37018"
     width="255.24818"
     id="rect4138"
     style="fill:#ffffff;fill-opacity:1;stroke:#323232;stroke-width:0.75181848;stroke-linejoin:bevel;stroke-miterlimit:4;stroke-dasharray:none;stroke-opacity:0.09803922" />
  <g
     transform="translate(-223.97586,-240.20126)"
     id="layer1">
    <g
       transform="matrix(0.862679,0,0,0.862679,30.2203,60.9008)"
       id="g2571">
      <g
         id="g4197">
        <path
           style="fill:#eb2d2e;fill-opacity:1;fill-rule:evenodd;stroke:none"
           id="path2408"
           d="m 224.59752,466.98865 296.75001,0 0,-221.54437 -296.75001,0 0,221.54437 z m 254.21005,-45.41116 0,43.10101 -208.31706,0 0,-40.79086 0.35643,0 1.05607,-0.3564 78.20882,-62.97498 23.65605,20.0456 21.00265,-18.44828 84.03704,59.42391 z m 0,-7.63012 -79.62133,-55.69467 79.62133,-69.00118 0,124.69585 z m -13.24052,-166.19954 -10.77194,10.29011 c -26.70545,25.854 -53.1469,53.79373 -81.20544,77.86561 l -0.88446,0.70625 -89.68042,-89.2184 182.54226,0.35643 z m -120.04912,108.90756 -75.02742,59.95196 0.17821,-123.62658 74.84921,63.67462" />
        <path
           d="m 310.14558,280.11284 c -0.10936,8.8e-4 -0.20417,0.0247 -0.29955,0.0567 -0.3053,0.0109 -0.495,0.12493 -0.59912,0.34004 -0.52671,0.38051 -0.45886,0.67234 0.34004,3.35198 0.26994,0.90532 0.78602,4.4611 1.14967,7.90194 0.98742,9.34295 2.00419,15.02456 3.78102,21.15543 3.30611,11.4086 9.77741,22.38633 17.56665,31.57149 3.01362,3.55328 5.70468,5.29275 10.94017,8.69965 5.23575,3.4069 7.58716,4.90387 7.59415,5.18159 0.008,0.29976 -2.50626,1.59073 -5.95884,3.06026 l -2.5908,1.10108 -5.8293,-0.008 c -6.35367,-0.0102 -9.76343,-0.42943 -15.67433,-1.92691 -4.35307,-1.1028 -6.64852,-2.15283 -17.8685,-8.14495 -5.70157,-3.04497 -10.80104,-5.69069 -11.33474,-5.87801 -0.87883,-0.30813 -1.03749,-0.28568 -1.68402,0.19431 -1.01658,0.75473 -3.27503,4.14398 -3.95097,5.94278 -0.5049,1.34353 -0.55697,1.87846 -0.44531,4.42871 0.0698,1.59376 0.19776,3.01103 0.28339,3.14938 0.0865,0.14 -0.0472,0.19553 -0.29955,0.12954 -0.72305,-0.18909 -2.77449,1.35869 -3.76469,2.83382 -1.31282,1.95535 -1.68661,4.55074 -1.20633,8.37967 0.28926,2.30615 0.52774,3.17037 1.3197,4.7606 0.53223,1.0687 1.37739,2.34071 1.87833,2.82553 l 0.90678,0.88248 -1.17394,1.30348 c -0.64724,0.71988 -1.48267,1.90428 -1.86215,2.62319 -0.50354,0.95395 -0.64414,1.38524 -0.68007,2.939 -0.14682,0.91603 -0.14195,1.84718 0,2.80946 0.0293,1.74467 0.16337,2.14301 0.8177,3.4652 1.01808,2.05714 2.33351,3.65976 4.59064,5.61063 1.61238,1.39365 1.70383,1.53857 1.51401,2.27504 -0.1114,0.43216 -0.20241,2.01403 -0.20241,3.51364 0,2.55152 0.0563,2.83355 0.84201,4.42871 1.43036,2.90377 3.80149,4.7365 8.33927,6.44461 l 2.47745,0.93108 0.34004,1.15779 c 0.18429,0.63362 0.60566,1.67429 0.93917,2.31552 0.33351,0.64122 0.79511,1.83216 1.02823,2.64753 0.58291,2.03876 2.42533,4.19088 5.1329,5.99123 2.52963,1.68208 5.74691,3.26959 6.67131,3.29524 0.0608,0.002 0.13397,0.009 0.2024,0.0163 0.10452,0.0346 0.20088,0.0643 0.29147,0.0891 0.43005,0.11786 0.75117,0.20257 1.02013,0.25908 0.59093,0.1803 1.13688,0.1247 2.16979,-0.18621 1.58578,-0.47733 2.90429,-2.44075 7.49726,-11.19718 6.38191,-12.16692 8.40895,-15.56501 11.54512,-19.35017 1.73105,-2.08896 3.31985,-3.27684 5.57826,-4.16963 1.91441,-0.75677 7.63171,-0.93844 11.04327,-0.34815 1.32872,0.2299 2.52098,0.35346 2.64754,0.27527 0.1265,-0.0781 0.78323,0.14267 1.46542,0.48577 0.68217,0.34311 1.93822,0.81787 2.79313,1.06063 0.85497,0.24276 3.53644,1.06549 5.95884,1.82975 8.84914,2.79184 12.84467,3.63748 18.52422,3.91055 12.18763,0.58573 24.23616,-3.22503 32.08446,-10.15282 4.50696,-3.97792 7.59648,-8.21102 11.28604,-15.45567 3.49499,-6.86226 5.62463,-12.66073 8.01542,-21.8275 2.42881,-9.31315 4.56603,-14.9085 6.83325,-17.87651 1.98979,-2.60506 5.39765,-4.28648 9.82895,-4.84973 2.03773,-0.25897 2.89213,-0.23014 6.0884,0.19431 2.04494,0.27158 4.58934,0.49715 5.65105,0.50197 1.84542,0.009 1.93847,-0.0205 2.09694,-0.63961 0.27822,-1.08708 -0.43561,-1.99502 -3.06856,-3.92662 -5.11215,-3.7507 -6.24744,-4.97356 -8.99498,-9.65876 -2.04069,-3.47996 -2.91387,-4.37586 -5.41632,-5.58628 -4.30592,-2.08261 -10.58835,-2.79936 -13.98229,-1.58687 -3.30793,1.18177 -6.79281,3.52194 -9.74791,6.5498 -2.71177,2.7789 -8.78667,8.20585 -10.7518,9.60202 -0.99745,0.70879 -2.58979,1.68105 -3.538,2.16172 -2.53338,1.94755 -5.90909,2.12406 -8.63048,1.95929 -0.89899,-0.14344 -1.75754,-0.34178 -2.38028,-0.6477 -5.03134,-2.47165 -10.44611,-5.65805 -13.05117,-10.80053 -0.46533,-0.91856 -1.56242,-3.42218 -2.43694,-5.57022 -1.87756,-4.61162 -3.69112,-7.47782 -6.86563,-10.81659 -2.60117,-2.73925 -4.4484,-3.88438 -9.98753,-6.23346 -5.94329,-2.52085 -11.1249,-4.20798 -29.1465,-9.48077 -12.97731,-3.79682 -16.02409,-4.88651 -21.18756,-7.56981 -2.17886,-1.13178 -4.54426,-2.2315 -5.2645,-2.44519 -0.58812,-0.1751 -0.9301,-0.2624 -1.19695,-0.25907 z m -23.39,80.7345 c 0.14249,0 0.25908,0.10881 0.25908,0.24289 0,0.13408 -0.11659,0.31675 -0.25908,0.40481 -0.1425,0.0881 -0.25908,-0.0207 -0.25908,-0.24288 0,-0.22215 0.11658,-0.40482 0.25908,-0.40482 z"
           style="fill:#87cdde"
           id="path2175" />
      </g>
    </g>
  </g>
</svg>
